<?xml version="1.0" encoding="utf-8"?>
<svg viewBox="85.766 145.073 336.68 174.271" xmlns="http://www.w3.org/2000/svg" xmlns:bx="https://boxy-svg.com">
  <defs>
    <linearGradient gradientUnits="userSpaceOnUse" x1="252.737" y1="147.81" x2="252.737" y2="312.044" id="gradient-1" gradientTransform="matrix(1.038235, 0, 0, 1, -9.207238, 2.737226)">
      <stop offset="0" style="stop-color: #bada55"/>
      <stop offset="1" style="stop-color: #758d29"/>
    </linearGradient>
    <filter id="warp-filter-0" color-interpolation-filters="sRGB" x="-500%" y="-500%" width="1000%" height="1000%" bx:preset="warp 1 50 0.1">
      <feComponentTransfer>
        <feFuncR type="table" tableValues="1 0.5"/>
      </feComponentTransfer>
      <feMerge result="a">
        <feMergeNode/>
        <feMergeNode in="SourceGraphic"/>
      </feMerge>
      <feTurbulence type="fractalNoise" baseFrequency="0.01" numOctaves="1" result="warp"/>
      <feDisplacementMap xChannelSelector="R" yChannelSelector="G" scale="50" in="a" in2="warp"/>
    </filter>
  </defs>
  <ellipse style="paint-order: stroke; fill-rule: nonzero; stroke: url(#gradient-1); fill: rgb(165, 136, 211);" cx="253.194" cy="232.664" rx="161.041" ry="82.117"/>
  <path d="M 184.547 161.8 C 187.547 147.8 212.142 184.229 214.742 171.029 C 215.742 165.329 216.792 159.429 217.892 153.329 C 218.992 147.229 220.017 141.179 220.967 135.179 C 221.917 129.179 222.767 123.354 223.517 117.704 C 224.267 112.054 224.842 106.929 225.242 102.329 C 227.542 102.529 230.142 102.704 233.042 102.854 C 235.942 103.004 238.642 103.179 241.142 103.379 C 244.142 103.579 247.142 103.679 250.142 103.679 C 250.042 104.079 249.892 104.829 249.692 105.929 C 249.492 107.029 249.242 108.354 248.942 109.904 C 248.642 111.454 248.317 113.179 247.967 115.079 C 247.617 116.979 247.242 118.879 246.842 120.779 C 246.042 125.179 245.142 130.129 244.142 135.629 L 245.042 135.479 C 246.042 133.879 247.467 131.654 249.317 128.804 C 251.167 125.954 253.092 122.929 255.092 119.729 C 257.092 116.529 259.042 113.454 260.942 110.504 C 262.842 107.554 264.442 105.029 265.742 102.929 C 270.742 102.529 271.793 109.299 276.793 108.799 C 281.793 108.299 282.902 111.381 287.902 110.581 C 283.202 116.881 284.006 118.298 279.606 124.398 C 277.706 126.998 278.267 123.529 276.317 126.329 C 274.367 129.129 272.442 131.879 270.542 134.579 C 268.642 137.279 266.867 139.879 265.217 142.379 C 263.567 144.879 262.092 147.179 260.792 149.279 C 262.992 159.379 265.592 169.129 268.592 178.529 C 271.592 187.929 274.642 197.529 277.742 207.329 C 275.442 207.229 273.092 207.154 270.692 207.104 C 268.292 207.054 265.942 207.029 263.642 207.029 C 260.742 207.029 257.942 207.054 255.242 207.104 C 252.542 207.154 249.742 207.229 246.842 207.329 C 245.942 200.829 244.967 194.004 243.917 186.854 C 242.867 179.704 241.892 172.879 240.992 166.379 L 238.292 169.529 C 237.592 172.529 236.817 176.229 235.967 180.629 C 235.117 185.029 234.292 189.279 233.492 193.379 C 232.592 198.179 231.642 203.129 230.642 208.229 L 184.547 161.8 Z" transform="matrix(1.777905, -0.946248, 0.654671, 1.23006, -290.229279, 276.927246)" style="fill: rgb(255, 255, 255); stroke-width: 0.586947px; white-space: pre; filter: url(#warp-filter-0);"/>
</svg>